<mxfile host="app.diagrams.net" modified="2024-05-12T03:35:18.258Z" agent="Mozilla/5.0 (Windows NT 10.0; Win64; x64) AppleWebKit/537.36 (KHTML, like Gecko) Chrome/124.0.0.0 Safari/537.36 Edg/124.0.0.0" etag="GLjHD1D1qTT13iwOf3pH" version="24.4.0" type="github">
  <diagram name="PÃ¡gina-1" id="UdH1-gKvDKVapIekHsB1">
    <mxGraphModel dx="664" dy="775" grid="1" gridSize="10" guides="1" tooltips="1" connect="1" arrows="1" fold="1" page="1" pageScale="1" pageWidth="827" pageHeight="1169" math="0" shadow="0">
      <root>
        <mxCell id="0" />
        <mxCell id="1" parent="0" />
        <mxCell id="WtG2zvQFbkql6weTgLgg-3" value="" style="edgeStyle=orthogonalEdgeStyle;rounded=0;orthogonalLoop=1;jettySize=auto;html=1;" edge="1" parent="1" source="WtG2zvQFbkql6weTgLgg-1" target="WtG2zvQFbkql6weTgLgg-2">
          <mxGeometry relative="1" as="geometry" />
        </mxCell>
        <mxCell id="WtG2zvQFbkql6weTgLgg-1" value="INICIO 1" style="ellipse;whiteSpace=wrap;html=1;" vertex="1" parent="1">
          <mxGeometry x="260" y="50" width="120" height="80" as="geometry" />
        </mxCell>
        <mxCell id="WtG2zvQFbkql6weTgLgg-5" value="" style="edgeStyle=orthogonalEdgeStyle;rounded=0;orthogonalLoop=1;jettySize=auto;html=1;" edge="1" parent="1" source="WtG2zvQFbkql6weTgLgg-2" target="WtG2zvQFbkql6weTgLgg-4">
          <mxGeometry relative="1" as="geometry" />
        </mxCell>
        <mxCell id="WtG2zvQFbkql6weTgLgg-15" value="" style="edgeStyle=orthogonalEdgeStyle;rounded=0;orthogonalLoop=1;jettySize=auto;html=1;" edge="1" parent="1" source="WtG2zvQFbkql6weTgLgg-2" target="WtG2zvQFbkql6weTgLgg-14">
          <mxGeometry relative="1" as="geometry" />
        </mxCell>
        <mxCell id="WtG2zvQFbkql6weTgLgg-2" value="if&amp;nbsp;int i=0 y i&amp;lt;=s1.size()" style="rhombus;whiteSpace=wrap;html=1;" vertex="1" parent="1">
          <mxGeometry x="245" y="190" width="150" height="80" as="geometry" />
        </mxCell>
        <mxCell id="WtG2zvQFbkql6weTgLgg-7" value="" style="edgeStyle=orthogonalEdgeStyle;rounded=0;orthogonalLoop=1;jettySize=auto;html=1;" edge="1" parent="1" source="WtG2zvQFbkql6weTgLgg-4" target="WtG2zvQFbkql6weTgLgg-6">
          <mxGeometry relative="1" as="geometry" />
        </mxCell>
        <mxCell id="WtG2zvQFbkql6weTgLgg-11" style="edgeStyle=orthogonalEdgeStyle;rounded=0;orthogonalLoop=1;jettySize=auto;html=1;entryX=1;entryY=0.25;entryDx=0;entryDy=0;" edge="1" parent="1" source="WtG2zvQFbkql6weTgLgg-4" target="WtG2zvQFbkql6weTgLgg-10">
          <mxGeometry relative="1" as="geometry" />
        </mxCell>
        <mxCell id="WtG2zvQFbkql6weTgLgg-4" value="s1[i]==&#39; &#39;" style="rhombus;whiteSpace=wrap;html=1;" vertex="1" parent="1">
          <mxGeometry x="450" y="190" width="80" height="80" as="geometry" />
        </mxCell>
        <mxCell id="WtG2zvQFbkql6weTgLgg-12" style="edgeStyle=orthogonalEdgeStyle;rounded=0;orthogonalLoop=1;jettySize=auto;html=1;entryX=1;entryY=0.25;entryDx=0;entryDy=0;" edge="1" parent="1" source="WtG2zvQFbkql6weTgLgg-6" target="WtG2zvQFbkql6weTgLgg-10">
          <mxGeometry relative="1" as="geometry">
            <mxPoint x="650" y="150" as="targetPoint" />
            <Array as="points">
              <mxPoint x="650" y="175" />
              <mxPoint x="651" y="175" />
              <mxPoint x="651" y="168" />
            </Array>
          </mxGeometry>
        </mxCell>
        <mxCell id="WtG2zvQFbkql6weTgLgg-6" value="mostrar&lt;div&gt;i&lt;/div&gt;" style="shape=parallelogram;perimeter=parallelogramPerimeter;whiteSpace=wrap;html=1;fixedSize=1;" vertex="1" parent="1">
          <mxGeometry x="590" y="200" width="120" height="60" as="geometry" />
        </mxCell>
        <mxCell id="WtG2zvQFbkql6weTgLgg-10" value="i++" style="rounded=0;whiteSpace=wrap;html=1;" vertex="1" parent="1">
          <mxGeometry x="395" y="160" width="70" height="30" as="geometry" />
        </mxCell>
        <mxCell id="WtG2zvQFbkql6weTgLgg-13" style="edgeStyle=orthogonalEdgeStyle;rounded=0;orthogonalLoop=1;jettySize=auto;html=1;entryX=0.693;entryY=0.113;entryDx=0;entryDy=0;entryPerimeter=0;" edge="1" parent="1" source="WtG2zvQFbkql6weTgLgg-10" target="WtG2zvQFbkql6weTgLgg-2">
          <mxGeometry relative="1" as="geometry" />
        </mxCell>
        <mxCell id="WtG2zvQFbkql6weTgLgg-22" style="edgeStyle=orthogonalEdgeStyle;rounded=0;orthogonalLoop=1;jettySize=auto;html=1;" edge="1" parent="1" source="WtG2zvQFbkql6weTgLgg-14" target="WtG2zvQFbkql6weTgLgg-21">
          <mxGeometry relative="1" as="geometry" />
        </mxCell>
        <mxCell id="WtG2zvQFbkql6weTgLgg-14" value="mostrar&lt;div&gt;s1.size()&lt;/div&gt;" style="shape=parallelogram;perimeter=parallelogramPerimeter;whiteSpace=wrap;html=1;fixedSize=1;" vertex="1" parent="1">
          <mxGeometry x="260" y="320" width="120" height="60" as="geometry" />
        </mxCell>
        <mxCell id="WtG2zvQFbkql6weTgLgg-16" value="si" style="text;html=1;align=center;verticalAlign=middle;whiteSpace=wrap;rounded=0;" vertex="1" parent="1">
          <mxGeometry x="390" y="240" width="60" height="30" as="geometry" />
        </mxCell>
        <mxCell id="WtG2zvQFbkql6weTgLgg-18" value="si" style="text;html=1;align=center;verticalAlign=middle;whiteSpace=wrap;rounded=0;" vertex="1" parent="1">
          <mxGeometry x="530" y="240" width="60" height="30" as="geometry" />
        </mxCell>
        <mxCell id="WtG2zvQFbkql6weTgLgg-19" value="no" style="text;html=1;align=center;verticalAlign=middle;whiteSpace=wrap;rounded=0;" vertex="1" parent="1">
          <mxGeometry x="490" y="170" width="60" height="30" as="geometry" />
        </mxCell>
        <mxCell id="WtG2zvQFbkql6weTgLgg-20" value="no" style="text;html=1;align=center;verticalAlign=middle;whiteSpace=wrap;rounded=0;" vertex="1" parent="1">
          <mxGeometry x="310" y="270" width="60" height="30" as="geometry" />
        </mxCell>
        <mxCell id="WtG2zvQFbkql6weTgLgg-21" value="fin" style="ellipse;whiteSpace=wrap;html=1;" vertex="1" parent="1">
          <mxGeometry x="260" y="440" width="120" height="80" as="geometry" />
        </mxCell>
      </root>
    </mxGraphModel>
  </diagram>
</mxfile>
